<svg width="30" height="30" viewBox="0 0 30 30" fill="none" xmlns="http://www.w3.org/2000/svg">
<path d="M30 14.7605C30 6.60765 23.2852 0 15 0C6.71484 0 0 6.60765 0 14.7605C0 21.6795 4.8457 27.4915 11.3789 29.0886V19.2694H8.28516V14.7605H11.3789V12.8175C11.3789 7.79541 13.6875 5.46601 18.7031 5.46601C19.6523 5.46601 21.293 5.65052 21.9668 5.83503V9.91724C21.6152 9.88264 21 9.85958 20.2324 9.85958C17.7715 9.85958 16.8223 10.7763 16.8223 13.1576V14.7605H21.7207L20.877 19.2694H16.8164V29.4115C24.2461 28.5294 30 22.308 30 14.7605Z" fill="white"/>
</svg>
