<svg width="30" height="30" viewBox="0 0 30 30" fill="none" xmlns="http://www.w3.org/2000/svg">
<path d="M15.0033 7.16502C10.7468 7.16502 7.31344 10.5318 7.31344 14.7058C7.31344 18.8798 10.7468 22.2465 15.0033 22.2465C19.2599 22.2465 22.6933 18.8798 22.6933 14.7058C22.6933 10.5318 19.2599 7.16502 15.0033 7.16502ZM15.0033 19.6082C12.2527 19.6082 10.0039 17.4097 10.0039 14.7058C10.0039 12.0019 12.246 9.8033 15.0033 9.8033C17.7607 9.8033 20.0028 12.0019 20.0028 14.7058C20.0028 17.4097 17.754 19.6082 15.0033 19.6082ZM24.8015 6.85657C24.8015 7.83443 23.9983 8.61542 23.0078 8.61542C22.0106 8.61542 21.2142 7.82787 21.2142 6.85657C21.2142 5.88526 22.0173 5.09771 23.0078 5.09771C23.9983 5.09771 24.8015 5.88526 24.8015 6.85657ZM29.8946 8.64167C29.7808 6.2856 29.232 4.1986 27.4718 2.47913C25.7184 0.759653 23.5901 0.221497 21.1874 0.103365C18.7111 -0.0344551 11.2889 -0.0344551 8.8126 0.103365C6.41662 0.214934 4.28834 0.75309 2.52817 2.47256C0.767987 4.19204 0.225878 6.27903 0.10541 8.63511C-0.0351366 11.0634 -0.0351366 18.3416 0.10541 20.7699C0.219186 23.1259 0.767987 25.2129 2.52817 26.9324C4.28834 28.6519 6.40993 29.19 8.8126 29.3082C11.2889 29.446 18.7111 29.446 21.1874 29.3082C23.5901 29.1966 25.7184 28.6584 27.4718 26.9324C29.2253 25.2129 29.7741 23.1259 29.8946 20.7699C30.0351 18.3416 30.0351 11.0699 29.8946 8.64167ZM26.6955 23.3753C26.1735 24.6617 25.1629 25.6526 23.8444 26.1711C21.8701 26.939 17.1852 26.7618 15.0033 26.7618C12.8215 26.7618 8.12995 26.9324 6.1623 26.1711C4.85053 25.6592 3.83993 24.6682 3.31121 23.3753C2.52817 21.4393 2.70887 16.8453 2.70887 14.7058C2.70887 12.5663 2.53486 7.96569 3.31121 6.03621C3.83324 4.74988 4.84384 3.75889 6.1623 3.24042C8.13664 2.47256 12.8215 2.64976 15.0033 2.64976C17.1852 2.64976 21.8767 2.47913 23.8444 3.24042C25.1562 3.75233 26.1668 4.74332 26.6955 6.03621C27.4785 7.97226 27.2978 12.5663 27.2978 14.7058C27.2978 16.8453 27.4785 21.4458 26.6955 23.3753Z" fill="white"/>
</svg>
