<svg width="34" height="30" viewBox="0 0 34 30" fill="none" xmlns="http://www.w3.org/2000/svg">
<path d="M29.9089 7.33344C29.9284 7.65167 29.9284 7.97697 29.9284 8.2952C29.9284 18.1038 23.0534 29.4115 10.4883 29.4115C6.61458 29.4115 3.02083 28.1952 0 26.0807C0.546875 26.1514 1.08073 26.1727 1.64714 26.1727C4.84375 26.1727 7.77995 24.9987 10.1302 23.0045C7.12891 22.9338 4.60938 20.7981 3.74349 17.8562C4.16667 17.927 4.58984 17.9694 5.03255 17.9694C5.64453 17.9694 6.25651 17.8775 6.82943 17.7148C3.69792 17.0288 1.35417 14.0375 1.35417 10.4309V10.3389C2.26562 10.8905 3.32031 11.2371 4.4401 11.2795C2.59766 9.95 1.39323 7.67288 1.39323 5.09875C1.39323 3.71976 1.73177 2.45391 2.32422 1.35071C5.6901 5.85543 10.7422 8.79729 16.4128 9.11552C16.3086 8.56393 16.2435 7.99111 16.2435 7.4183C16.2435 3.33081 19.2904 0 23.0729 0C25.0391 0 26.8164 0.898116 28.0664 2.34076C29.6094 2.02253 31.0938 1.40021 32.4023 0.551599C31.8945 2.27711 30.8138 3.71976 29.401 4.63909C30.7747 4.47644 32.1094 4.06627 33.3333 3.49346C32.4023 4.96439 31.237 6.27267 29.9089 7.33344Z" fill="white"/>
</svg>
