<svg width="50" height="50" viewBox="0 0 50 50" fill="none" xmlns="http://www.w3.org/2000/svg">
<path d="M18.75 35.5389L36.25 24.5096L18.75 13.4803V35.5389ZM25 49.0192C21.5417 49.0192 18.2917 48.3758 15.25 47.0891C12.2083 45.8023 9.5625 44.056 7.3125 41.8502C5.0625 39.6443 3.28125 37.0504 1.96875 34.0684C0.65625 31.0864 0 27.9001 0 24.5096C0 21.1191 0.65625 17.9329 1.96875 14.9509C3.28125 11.9689 5.0625 9.37493 7.3125 7.16906C9.5625 4.9632 12.2083 3.21689 15.25 1.93013C18.2917 0.643377 21.5417 0 25 0C28.4583 0 31.7083 0.643377 34.75 1.93013C37.7917 3.21689 40.4375 4.9632 42.6875 7.16906C44.9375 9.37493 46.7188 11.9689 48.0312 14.9509C49.3438 17.9329 50 21.1191 50 24.5096C50 27.9001 49.3438 31.0864 48.0312 34.0684C46.7188 37.0504 44.9375 39.6443 42.6875 41.8502C40.4375 44.056 37.7917 45.8023 34.75 47.0891C31.7083 48.3758 28.4583 49.0192 25 49.0192ZM25 44.1173C30.5833 44.1173 35.3125 42.2178 39.1875 38.4188C43.0625 34.6198 45 29.9834 45 24.5096C45 19.0358 43.0625 14.3994 39.1875 10.6004C35.3125 6.80142 30.5833 4.90192 25 4.90192C19.4167 4.90192 14.6875 6.80142 10.8125 10.6004C6.9375 14.3994 5 19.0358 5 24.5096C5 29.9834 6.9375 34.6198 10.8125 38.4188C14.6875 42.2178 19.4167 44.1173 25 44.1173Z" fill="white"/>
</svg>
