<svg width="50" height="50" viewBox="0 0 50 50" fill="none" xmlns="http://www.w3.org/2000/svg">
<path d="M7.14286 5.35714C6.16071 5.35714 5.35714 6.16071 5.35714 7.14286V42.8571C5.35714 43.8393 6.16071 44.6429 7.14286 44.6429H42.8571C43.8393 44.6429 44.6429 43.8393 44.6429 42.8571V7.14286C44.6429 6.16071 43.8393 5.35714 42.8571 5.35714H7.14286ZM0 7.14286C0 3.20313 3.20313 0 7.14286 0H42.8571C46.7969 0 50 3.20313 50 7.14286V42.8571C50 46.7969 46.7969 50 42.8571 50H7.14286C3.20313 50 0 46.7969 0 42.8571V7.14286ZM25 14.2857C25.7478 14.2857 26.4509 14.5982 26.9643 15.1451L38.5714 27.6451C39.2969 28.4263 39.4866 29.5647 39.0625 30.5357C38.6384 31.5067 37.6674 32.1429 36.6071 32.1429H13.3929C12.3326 32.1429 11.3616 31.5067 10.9375 30.5357C10.5134 29.5647 10.7031 28.4263 11.4286 27.6451L23.0357 15.1451C23.5379 14.5982 24.2522 14.2857 25 14.2857Z" fill="white"/>
</svg>
